<svg width="33" height="32" viewBox="0 0 33 32" fill="none" xmlns="http://www.w3.org/2000/svg">
<rect x="27" y="13" width="3" height="3" transform="rotate(90 27 13)" fill="black"/>
<rect x="18" y="16" width="3" height="3" transform="rotate(90 18 16)" fill="black"/>
<rect x="18" y="14" width="3" height="3" transform="rotate(90 18 14)" fill="black"/>
<rect x="18" y="12" width="3" height="3" transform="rotate(90 18 12)" fill="black"/>
<rect x="18" y="10" width="3" height="3" transform="rotate(90 18 10)" fill="black"/>
<rect x="18" y="8" width="3" height="3" transform="rotate(90 18 8)" fill="black"/>
<rect x="18" y="6" width="3" height="3" transform="rotate(90 18 6)" fill="black"/>
<rect x="18" y="4" width="3" height="3" transform="rotate(90 18 4)" fill="black"/>
<rect x="18" y="2" width="3" height="3" transform="rotate(90 18 2)" fill="black"/>
<rect x="18" width="3" height="3" transform="rotate(90 18 0)" fill="black"/>
<rect width="3" height="3" transform="matrix(0 1 1 0 6 13)" fill="black"/>
<rect x="24" y="16" width="3" height="3" transform="rotate(90 24 16)" fill="black"/>
<rect width="3" height="3" transform="matrix(0 1 1 0 9 16)" fill="black"/>
<rect x="21" y="19" width="3" height="3" transform="rotate(90 21 19)" fill="black"/>
<rect width="3" height="3" transform="matrix(0 1 1 0 12 19)" fill="black"/>
<rect x="18" y="22" width="3" height="3" transform="rotate(90 18 22)" fill="black"/>
<rect width="3" height="3" transform="matrix(1 0 0 -1 3 32)" fill="black"/>
<rect width="3" height="3" transform="matrix(1 0 0 -1 6 32)" fill="black"/>
<rect width="3" height="3" transform="matrix(1 0 0 -1 9 32)" fill="black"/>
<rect width="3" height="3" transform="matrix(1 0 0 -1 12 32)" fill="black"/>
<rect width="3" height="3" transform="matrix(1 0 0 -1 15 32)" fill="black"/>
<rect width="3" height="3" transform="matrix(1 0 0 -1 18 32)" fill="black"/>
<rect width="3" height="3" transform="matrix(1 0 0 -1 21 32)" fill="black"/>
<rect width="3" height="3" transform="matrix(1 0 0 -1 24 32)" fill="black"/>
<rect width="3" height="3" transform="matrix(1 0 0 -1 27 32)" fill="black"/>
<rect width="3" height="3" transform="matrix(1 0 0 -1 30 29)" fill="black"/>
<rect width="3" height="3" transform="matrix(1 0 0 -1 0 29)" fill="black"/>
</svg>
