<svg width="27" height="28" viewBox="0 0 27 28" fill="none" xmlns="http://www.w3.org/2000/svg">
<rect y="0.5" width="3" height="3" fill="white"/>
<rect width="3" height="3" transform="matrix(1 0 0 -1 0 27.5)" fill="white"/>
<rect x="3" y="3.5" width="3" height="3" fill="white"/>
<rect width="3" height="3" transform="matrix(1 0 0 -1 3 24.5)" fill="white"/>
<rect x="6" y="6.5" width="3" height="3" fill="white"/>
<rect width="3" height="3" transform="matrix(1 0 0 -1 6 21.5)" fill="white"/>
<rect x="9" y="9.5" width="3" height="3" fill="white"/>
<rect width="3" height="3" transform="matrix(1 0 0 -1 9 18.5)" fill="white"/>
<rect width="3" height="3" transform="matrix(1 0 0 -1 12 15.5)" fill="white"/>
<rect width="3" height="3" transform="matrix(-1 0 0 1 27 0.5)" fill="white"/>
<rect x="27" y="27.5" width="3" height="3" transform="rotate(180 27 27.5)" fill="white"/>
<rect width="3" height="3" transform="matrix(-1 0 0 1 24 3.5)" fill="white"/>
<rect x="24" y="24.5" width="3" height="3" transform="rotate(180 24 24.5)" fill="white"/>
<rect width="3" height="3" transform="matrix(-1 0 0 1 21 6.5)" fill="white"/>
<rect x="21" y="21.5" width="3" height="3" transform="rotate(180 21 21.5)" fill="white"/>
<rect width="3" height="3" transform="matrix(-1 0 0 1 18 9.5)" fill="white"/>
<rect x="18" y="18.5" width="3" height="3" transform="rotate(180 18 18.5)" fill="white"/>
<rect x="15" y="15.5" width="3" height="3" transform="rotate(180 15 15.5)" fill="white"/>
</svg>
