<svg width="12" height="21" viewBox="0 0 12 21" fill="none" xmlns="http://www.w3.org/2000/svg">
<rect width="3" height="3" transform="matrix(-1 0 0 1 12 0)" fill="black"/>
<rect x="12" y="21" width="3" height="3" transform="rotate(180 12 21)" fill="black"/>
<rect width="3" height="3" transform="matrix(-1 0 0 1 9 3)" fill="black"/>
<rect x="9" y="18" width="3" height="3" transform="rotate(180 9 18)" fill="black"/>
<rect width="3" height="3" transform="matrix(-1 0 0 1 6 6)" fill="black"/>
<rect x="6" y="15" width="3" height="3" transform="rotate(180 6 15)" fill="black"/>
<rect width="3" height="3" transform="matrix(-1 0 0 1 3 9)" fill="black"/>
<rect x="3" y="12" width="3" height="3" transform="rotate(180 3 12)" fill="black"/>
</svg>
