<svg width="15" height="15" viewBox="0 0 15 15" fill="none" xmlns="http://www.w3.org/2000/svg">
<rect x="9" y="6" width="3" height="3" transform="rotate(90 9 6)" fill="black"/>
<rect x="9" y="3" width="3" height="3" transform="rotate(90 9 3)" fill="black"/>
<rect x="9" width="3" height="3" transform="rotate(90 9 0)" fill="black"/>
<rect x="15" y="6" width="3" height="3" transform="rotate(90 15 6)" fill="black"/>
<rect width="3" height="3" transform="matrix(0 1 1 0 0 6)" fill="black"/>
<rect x="12" y="9" width="3" height="3" transform="rotate(90 12 9)" fill="black"/>
<rect width="3" height="3" transform="matrix(0 1 1 0 3 9)" fill="black"/>
<rect x="9" y="12" width="3" height="3" transform="rotate(90 9 12)" fill="black"/>
<rect width="3" height="3" transform="matrix(0 1 1 0 6 12)" fill="black"/>
</svg>
