<svg width="74" height="64" viewBox="0 0 74 64" fill="none" xmlns="http://www.w3.org/2000/svg">
<rect x="5" width="64" height="5" fill="black"/>
<rect x="5" y="59" width="64" height="5" fill="black"/>
<rect x="69" y="5" width="5" height="54" fill="black"/>
<rect y="5" width="5" height="54" fill="black"/>
<rect x="5" y="5" width="64" height="54" fill="#455FFE"/>
<rect opacity="0.3" x="64" y="5" width="5" height="49" fill="black"/>
<rect opacity="0.3" x="5" y="54" width="64" height="5" fill="black"/>
<rect x="37" y="23" width="3" height="3" fill="black"/>
<rect x="37" y="23" width="3" height="3" fill="white"/>
<rect x="40" y="23" width="3" height="3" fill="black"/>
<rect x="40" y="23" width="3" height="3" fill="white"/>
<rect x="43" y="23" width="3" height="3" fill="black"/>
<rect x="43" y="23" width="3" height="3" fill="white"/>
<rect x="46" y="26" width="3" height="3" fill="black"/>
<rect x="46" y="26" width="3" height="3" fill="white"/>
<rect x="46" y="29" width="3" height="3" fill="black"/>
<rect x="46" y="29" width="3" height="3" fill="white"/>
<rect x="49" y="29" width="3" height="3" fill="black"/>
<rect x="49" y="29" width="3" height="3" fill="white"/>
<rect x="49" y="26" width="3" height="3" fill="black"/>
<rect x="49" y="26" width="3" height="3" fill="#D2CCFC"/>
<rect x="46" y="32" width="3" height="3" fill="black"/>
<rect x="46" y="32" width="3" height="3" fill="white"/>
<rect x="49" y="32" width="3" height="3" fill="black"/>
<rect x="49" y="32" width="3" height="3" fill="white"/>
<rect x="43" y="32" width="3" height="3" fill="black"/>
<rect x="43" y="32" width="3" height="3" fill="white"/>
<rect x="40" y="32" width="3" height="3" fill="black"/>
<rect x="40" y="32" width="3" height="3" fill="white"/>
<rect x="37" y="29" width="3" height="3" fill="black"/>
<rect x="37" y="29" width="3" height="3" fill="white"/>
<rect x="37" y="32" width="3" height="3" fill="black"/>
<rect x="37" y="32" width="3" height="3" fill="white"/>
<rect x="34" y="29" width="3" height="3" fill="black"/>
<rect x="34" y="29" width="3" height="3" fill="white"/>
<rect x="34" y="32" width="3" height="3" fill="black"/>
<rect x="34" y="32" width="3" height="3" fill="white"/>
<rect x="31" y="32" width="3" height="3" fill="black"/>
<rect x="31" y="32" width="3" height="3" fill="white"/>
<rect x="28" y="32" width="3" height="3" fill="black"/>
<rect x="28" y="32" width="3" height="3" fill="white"/>
<rect x="25" y="32" width="3" height="3" fill="black"/>
<rect x="25" y="32" width="3" height="3" fill="white"/>
<rect x="22" y="32" width="3" height="3" fill="black"/>
<rect x="22" y="32" width="3" height="3" fill="white"/>
<rect x="25" y="35" width="3" height="3" fill="black"/>
<rect x="25" y="35" width="3" height="3" fill="white"/>
<rect x="22" y="35" width="3" height="3" fill="black"/>
<rect x="22" y="35" width="3" height="3" fill="white"/>
<rect x="25" y="38" width="3" height="3" fill="black"/>
<rect x="25" y="38" width="3" height="3" fill="white"/>
<rect x="28" y="38" width="3" height="3" fill="black"/>
<rect x="28" y="38" width="3" height="3" fill="white"/>
<rect x="25" y="29" width="3" height="3" fill="black"/>
<rect x="25" y="29" width="3" height="3" fill="white"/>
<rect x="22" y="29" width="3" height="3" fill="black"/>
<rect x="22" y="29" width="3" height="3" fill="white"/>
<rect x="25" y="26" width="3" height="3" fill="black"/>
<rect x="25" y="26" width="3" height="3" fill="white"/>
<rect x="22" y="26" width="3" height="3" fill="black"/>
<rect x="22" y="26" width="3" height="3" fill="#D2CCFC"/>
<rect x="40" y="35" width="3" height="3" fill="black"/>
<rect x="40" y="35" width="3" height="3" fill="white"/>
<rect x="43" y="35" width="3" height="3" fill="black"/>
<rect x="43" y="35" width="3" height="3" fill="white"/>
<rect x="46" y="35" width="3" height="3" fill="black"/>
<rect x="46" y="35" width="3" height="3" fill="white"/>
<rect x="49" y="35" width="3" height="3" fill="black"/>
<rect x="49" y="35" width="3" height="3" fill="white"/>
<rect x="46" y="38" width="3" height="3" fill="black"/>
<rect x="46" y="38" width="3" height="3" fill="white"/>
<rect x="43" y="38" width="3" height="3" fill="black"/>
<rect x="43" y="38" width="3" height="3" fill="white"/>
<rect x="40" y="38" width="3" height="3" fill="black"/>
<rect x="40" y="38" width="3" height="3" fill="#D2CCFC"/>
<rect x="37" y="35" width="3" height="3" fill="black"/>
<rect x="37" y="35" width="3" height="3" fill="#D2CCFC"/>
<rect x="40" y="35" width="3" height="3" fill="black"/>
<rect x="40" y="35" width="3" height="3" fill="#D2CCFC"/>
<rect x="43" y="35" width="3" height="3" fill="black"/>
<rect x="43" y="35" width="3" height="3" fill="#D2CCFC"/>
<rect x="46" y="32" width="3" height="3" fill="black"/>
<rect x="46" y="32" width="3" height="3" fill="#D2CCFC"/>
<rect x="34" y="35" width="3" height="3" fill="black"/>
<rect x="34" y="35" width="3" height="3" fill="#D2CCFC"/>
<rect x="31" y="38" width="3" height="3" fill="black"/>
<rect x="31" y="38" width="3" height="3" fill="#D2CCFC"/>
<rect x="31" y="35" width="3" height="3" fill="black"/>
<rect x="31" y="35" width="3" height="3" fill="#D2CCFC"/>
<rect x="28" y="35" width="3" height="3" fill="black"/>
<rect x="28" y="35" width="3" height="3" fill="#D2CCFC"/>
<rect x="25" y="32" width="3" height="3" fill="black"/>
<rect x="25" y="32" width="3" height="3" fill="#D2CCFC"/>
<rect x="43" y="20" width="3" height="3" fill="black"/>
<rect x="43" y="20" width="3" height="3" fill="#D2CCFC"/>
<rect x="28" y="20" width="3" height="3" fill="black"/>
<rect x="28" y="20" width="3" height="3" fill="#D2CCFC"/>
<rect x="46" y="23" width="3" height="3" fill="black"/>
<rect x="46" y="23" width="3" height="3" fill="#D2CCFC"/>
<rect x="25" y="23" width="3" height="3" fill="black"/>
<rect x="25" y="23" width="3" height="3" fill="#D2CCFC"/>
<rect x="52" y="29" width="3" height="3" fill="black"/>
<rect x="52" y="29" width="3" height="3" fill="#D2CCFC"/>
<rect x="19" y="29" width="3" height="3" fill="black"/>
<rect x="19" y="29" width="3" height="3" fill="#D2CCFC"/>
<rect x="52" y="32" width="3" height="3" fill="black"/>
<rect x="52" y="32" width="3" height="3" fill="#D2CCFC"/>
<rect x="19" y="32" width="3" height="3" fill="black"/>
<rect x="19" y="32" width="3" height="3" fill="#D2CCFC"/>
<rect x="52" y="35" width="3" height="3" fill="black"/>
<rect x="52" y="35" width="3" height="3" fill="#D2CCFC"/>
<rect x="19" y="35" width="3" height="3" fill="black"/>
<rect x="19" y="35" width="3" height="3" fill="#D2CCFC"/>
<rect x="40" y="17" width="3" height="3" fill="black"/>
<rect x="40" y="17" width="3" height="3" fill="#D2CCFC"/>
<rect x="43" y="17" width="3" height="3" fill="black"/>
<rect x="43" y="17" width="3" height="3" fill="#D2CCFC"/>
<rect x="31" y="17" width="3" height="3" fill="black"/>
<rect x="31" y="17" width="3" height="3" fill="#D2CCFC"/>
<rect x="28" y="17" width="3" height="3" fill="black"/>
<rect x="28" y="17" width="3" height="3" fill="#D2CCFC"/>
<rect x="34" y="23" width="3" height="3" fill="black"/>
<rect x="34" y="23" width="3" height="3" fill="white"/>
<rect x="34" y="26" width="3" height="3" fill="black"/>
<rect x="34" y="26" width="3" height="3" fill="white"/>
<rect x="37" y="26" width="3" height="3" fill="black"/>
<rect x="37" y="26" width="3" height="3" fill="white"/>
<rect x="31" y="23" width="3" height="3" fill="black"/>
<rect x="31" y="23" width="3" height="3" fill="white"/>
<rect x="28" y="23" width="3" height="3" fill="black"/>
<rect x="28" y="23" width="3" height="3" fill="white"/>
</svg>
