<svg width="74" height="64" viewBox="0 0 74 64" fill="none" xmlns="http://www.w3.org/2000/svg">
<rect x="5" width="64" height="5" fill="black"/>
<rect x="5" y="59" width="64" height="5" fill="black"/>
<rect x="69" y="5" width="5" height="54" fill="black"/>
<rect y="5" width="5" height="54" fill="black"/>
<rect x="5" y="5" width="64" height="54" fill="#232323"/>
<rect opacity="0.3" x="64" y="5" width="5" height="49" fill="black"/>
<rect opacity="0.3" x="5" y="54" width="64" height="5" fill="black"/>
<rect x="13" y="29" width="3" height="3" fill="white"/>
<rect x="13" y="26" width="3" height="3" fill="white"/>
<rect x="16" y="23" width="3" height="3" fill="white"/>
<rect x="19" y="20" width="3" height="3" fill="white"/>
<rect x="22" y="17" width="3" height="3" fill="white"/>
<rect x="25" y="17" width="3" height="3" fill="white"/>
<rect x="28" y="20" width="3" height="3" fill="white"/>
<rect x="22" y="20" width="6" height="3" fill="white"/>
<rect x="22" y="35" width="6" height="3" fill="white"/>
<rect x="19" y="23" width="12" height="3" fill="white"/>
<rect x="19" y="32" width="12" height="3" fill="white"/>
<rect x="16" y="29" width="18" height="3" fill="white"/>
<rect x="16" y="26" width="18" height="3" fill="white"/>
<rect x="34" y="26" width="3" height="3" fill="white"/>
<rect x="22" y="38" width="3" height="3" fill="white"/>
<rect x="19" y="35" width="3" height="3" fill="white"/>
<rect x="16" y="32" width="3" height="3" fill="white"/>
<rect x="38.5" y="29" width="3" height="3" fill="white"/>
<rect x="38.5" y="26" width="3" height="3" fill="white"/>
<rect x="41.5" y="23" width="3" height="3" fill="white"/>
<rect x="41.5" y="20" width="3" height="3" fill="white"/>
<rect x="44.5" y="17" width="3" height="21" fill="white"/>
<rect x="47.5" y="20" width="3" height="3" fill="white"/>
<rect x="47.5" y="23" width="3" height="3" fill="white"/>
<rect x="50.5" y="26" width="3" height="3" fill="white"/>
<rect x="50.5" y="29" width="3" height="3" fill="white"/>
<rect x="47.5" y="26" width="3" height="6" fill="white"/>
<rect x="41.5" y="26" width="3" height="6" fill="white"/>
<rect x="56.5" y="17" width="3" height="3" fill="white"/>
<rect x="55" y="20" width="3" height="3" fill="white"/>
<rect x="55" y="23" width="3" height="3" fill="white"/>
<rect x="55" y="26" width="3" height="3" fill="white"/>
<rect x="55" y="29" width="3" height="3" fill="white"/>
<rect x="55" y="32" width="3" height="3" fill="white"/>
<rect x="55" y="35" width="3" height="3" fill="white"/>
<rect x="56.5" y="38" width="3" height="3" fill="white"/>
<rect x="58" y="35" width="3" height="3" fill="white"/>
<rect x="58" y="32" width="3" height="3" fill="white"/>
<rect x="58" y="29" width="3" height="3" fill="white"/>
<rect x="58" y="26" width="3" height="3" fill="white"/>
<rect x="58" y="23" width="3" height="3" fill="white"/>
<rect x="58" y="20" width="3" height="3" fill="white"/>
<rect x="47.5" y="32" width="3" height="3" fill="white"/>
<rect x="47.5" y="35" width="3" height="3" fill="white"/>
<rect x="44.5" y="38" width="3" height="3" fill="white"/>
<rect x="41.5" y="35" width="3" height="3" fill="white"/>
<rect x="41.5" y="32" width="3" height="3" fill="white"/>
<rect x="31" y="23" width="3" height="3" fill="white"/>
<rect x="34" y="29" width="3" height="3" fill="white"/>
<rect x="31" y="32" width="3" height="3" fill="white"/>
<rect x="28" y="35" width="3" height="3" fill="white"/>
<rect x="25" y="38" width="3" height="3" fill="white"/>
</svg>
