<svg width="74" height="64" viewBox="0 0 74 64" fill="none" xmlns="http://www.w3.org/2000/svg">
<rect x="5" width="64" height="5" fill="black"/>
<rect x="5" y="59" width="64" height="5" fill="black"/>
<rect x="69" y="5" width="5" height="54" fill="black"/>
<rect y="5" width="5" height="54" fill="black"/>
<rect x="5" y="5" width="64" height="54" fill="#2081E2"/>
<rect opacity="0.3" x="64" y="5" width="5" height="49" fill="black"/>
<rect opacity="0.3" x="5" y="54" width="64" height="5" fill="black"/>
<g clip-path="url(#clip0_118_772)">
<path fill-rule="evenodd" clip-rule="evenodd" d="M17.9998 4.66663H55.9998V7.83329H59.1665V11H62.3332V49H59.1665V52.1666H55.9998V55.3333H17.9998V52.1666H14.8332V49H11.6665V11H14.8332V7.83329H17.9998V4.66663Z" fill="#2081E2"/>
<path d="M27.5 20.5H18V23.6667H27.5V20.5Z" fill="#2081E2"/>
<path d="M52.8333 20.5H37V23.6667H52.8333V20.5Z" fill="#2081E2"/>
<path d="M56 17.3334H37V20.5H56V17.3334Z" fill="#2081E2"/>
<path d="M46.4998 14.1666H40.1665V17.3333H46.4998V14.1666Z" fill="#2081E2"/>
<path d="M52.8332 14.1666H49.6665V17.3333H52.8332V14.1666Z" fill="#2081E2"/>
<path d="M33.8335 42.6666H24.3335V45.8333H33.8335V42.6666Z" fill="#2081E2"/>
<path d="M49.6665 23.6666H21.1665V26.8333H49.6665V23.6666Z" fill="#2081E2"/>
<path d="M49.6668 26.8334H24.3335V30H49.6668V26.8334Z" fill="#2081E2"/>
<path d="M49.6667 30H27.5V33.1667H49.6667V30Z" fill="#2081E2"/>
<path d="M46.5 33.1666H27.5V36.3333H46.5V33.1666Z" fill="#2081E2"/>
<path d="M43.3332 36.3334H30.6665V39.5H43.3332V36.3334Z" fill="#2081E2"/>
<path d="M40.1665 39.5H21.1665V42.6667H40.1665V39.5Z" fill="#2081E2"/>
<path d="M14.8332 11H11.6665V49H14.8332V11Z" fill="#2081E2"/>
<path d="M18.0002 7.83337H14.8335V11H18.0002V7.83337Z" fill="#2081E2"/>
<path d="M56 4.66663H18V7.83329H56V4.66663Z" fill="#2081E2"/>
<path d="M41.1167 38.2333H31.6167V41.3999H41.1167V38.2333Z" fill="white"/>
<path d="M31.6169 22.4H28.4502V25.5667H31.6169V22.4Z" fill="white"/>
<path d="M37.95 16.0667H36.3667V17.65H37.95V16.0667Z" fill="white"/>
<path d="M37.95 17.65H36.3667V19.2334H37.95V17.65Z" fill="white"/>
<path d="M37.95 19.2333H36.3667V20.8166H37.95V19.2333Z" fill="white"/>
<path d="M39.5335 19.2333H37.9502V20.8166H39.5335V19.2333Z" fill="white"/>
<path d="M41.117 20.8167H39.5337V22.4H41.117V20.8167Z" fill="white"/>
<path d="M39.5335 20.8167H37.9502V22.4H39.5335V20.8167Z" fill="white"/>
<path d="M37.95 20.8167H36.3667V22.4H37.95V20.8167Z" fill="white"/>
<path d="M37.95 22.4H36.3667V23.9834H37.95V22.4Z" fill="white"/>
<path d="M39.5335 22.4H37.9502V23.9834H39.5335V22.4Z" fill="white"/>
<path d="M41.117 22.4H39.5337V23.9834H41.117V22.4Z" fill="white"/>
<path d="M42.7 23.9833H41.1167V25.5666H42.7V23.9833Z" fill="white"/>
<path d="M42.7 25.5667H41.1167V27.15H42.7V25.5667Z" fill="white"/>
<path d="M42.7 27.15H41.1167V28.7334H42.7V27.15Z" fill="white"/>
<path d="M42.7 28.7333H41.1167V30.3166H42.7V28.7333Z" fill="white"/>
<path d="M42.7 30.3167H41.1167V31.9H42.7V30.3167Z" fill="white"/>
<path d="M41.117 31.9H39.5337V33.4834H41.117V31.9Z" fill="white"/>
<path d="M41.117 23.9833H39.5337V25.5666H41.117V23.9833Z" fill="white"/>
<path d="M41.117 25.5667H39.5337V27.15H41.117V25.5667Z" fill="white"/>
<path d="M41.117 27.15H39.5337V28.7334H41.117V27.15Z" fill="white"/>
<path d="M41.117 28.7333H39.5337V30.3166H41.117V28.7333Z" fill="white"/>
<path d="M41.117 30.3167H39.5337V31.9H41.117V30.3167Z" fill="white"/>
<path d="M39.5335 31.9H37.9502V33.4834H39.5335V31.9Z" fill="white"/>
<path d="M39.5335 23.9833H37.9502V25.5666H39.5335V23.9833Z" fill="white"/>
<path d="M39.5335 25.5667H37.9502V27.15H39.5335V25.5667Z" fill="white"/>
<path d="M39.5335 27.15H37.9502V28.7334H39.5335V27.15Z" fill="white"/>
<path d="M39.5335 28.7333H37.9502V30.3166H39.5335V28.7333Z" fill="white"/>
<path d="M39.5335 30.3167H37.9502V31.9H39.5335V30.3167Z" fill="white"/>
<path d="M37.95 31.9H36.3667V33.4834H37.95V31.9Z" fill="white"/>
<path d="M37.95 23.9833H36.3667V25.5666H37.95V23.9833Z" fill="white"/>
<path d="M37.95 25.5667H36.3667V27.15H37.95V25.5667Z" fill="white"/>
<path d="M37.95 27.15H36.3667V28.7334H37.95V27.15Z" fill="white"/>
<path d="M37.95 28.7333H36.3667V30.3166H37.95V28.7333Z" fill="white"/>
<path d="M37.95 30.3167H36.3667V31.9H37.95V30.3167Z" fill="white"/>
<path d="M36.367 31.9H34.7837V33.4834H36.367V31.9Z" fill="white"/>
<path d="M42.7 22.4H41.1167V23.9834H42.7V22.4Z" fill="white"/>
<path d="M44.2835 23.9833H42.7002V25.5666H44.2835V23.9833Z" fill="white"/>
<path d="M44.2835 25.5667H42.7002V27.15H44.2835V25.5667Z" fill="white"/>
<path d="M44.2835 27.15H42.7002V28.7334H44.2835V27.15Z" fill="white"/>
<path d="M44.2835 28.7333H42.7002V30.3166H44.2835V28.7333Z" fill="white"/>
<path d="M44.2835 30.3167H42.7002V31.9H44.2835V30.3167Z" fill="white"/>
<path d="M42.7 31.9H41.1167V33.4834H42.7V31.9Z" fill="white"/>
<path d="M41.117 33.4833H39.5337V35.0666H41.117V33.4833Z" fill="white"/>
<path d="M39.5335 33.4833H37.9502V35.0666H39.5335V33.4833Z" fill="white"/>
<path d="M37.95 35.0667H36.3667V36.65H37.95V35.0667Z" fill="white"/>
<path d="M37.95 36.65H36.3667V38.2334H37.95V36.65Z" fill="white"/>
<path d="M37.95 38.2333H36.3667V39.8166H37.95V38.2333Z" fill="white"/>
<path d="M39.5335 38.2333H37.9502V39.8166H39.5335V38.2333Z" fill="white"/>
<path d="M39.5335 36.65H37.9502V38.2334H39.5335V36.65Z" fill="white"/>
<path d="M41.117 36.65H39.5337V38.2334H41.117V36.65Z" fill="white"/>
<path d="M42.7 36.65H41.1167V38.2334H42.7V36.65Z" fill="white"/>
<path d="M44.2835 35.0667H42.7002V36.65H44.2835V35.0667Z" fill="white"/>
<path d="M45.867 35.0667H44.2837V36.65H45.867V35.0667Z" fill="white"/>
<path d="M47.45 33.4833H45.8667V35.0666H47.45V33.4833Z" fill="white"/>
<path d="M49.0335 33.4833H47.4502V35.0666H49.0335V33.4833Z" fill="white"/>
<path d="M49.0335 35.0667H47.4502V36.65H49.0335V35.0667Z" fill="white"/>
<path d="M47.45 35.0667H45.8667V36.65H47.45V35.0667Z" fill="white"/>
<path d="M50.617 33.4833H49.0337V35.0666H50.617V33.4833Z" fill="white"/>
<path d="M52.2 31.9H50.6167V33.4834H52.2V31.9Z" fill="white"/>
<path d="M52.2 33.4833H50.6167V35.0666H52.2V33.4833Z" fill="white"/>
<path d="M50.617 35.0667H49.0337V36.65H50.617V35.0667Z" fill="white"/>
<path d="M50.617 36.65H49.0337V38.2334H50.617V36.65Z" fill="white"/>
<path d="M52.2 35.0667H50.6167V36.65H52.2V35.0667Z" fill="white"/>
<path d="M49.0335 36.65H47.4502V38.2334H49.0335V36.65Z" fill="white"/>
<path d="M47.45 36.65H45.8667V38.2334H47.45V36.65Z" fill="white"/>
<path d="M45.867 36.65H44.2837V38.2334H45.867V36.65Z" fill="white"/>
<path d="M44.2835 36.65H42.7002V38.2334H44.2835V36.65Z" fill="white"/>
<path d="M49.0335 38.2333H47.4502V39.8166H49.0335V38.2333Z" fill="white"/>
<path d="M47.45 38.2333H45.8667V39.8166H47.45V38.2333Z" fill="white"/>
<path d="M45.867 38.2333H44.2837V39.8166H45.867V38.2333Z" fill="white"/>
<path d="M44.2835 38.2333H42.7002V39.8166H44.2835V38.2333Z" fill="white"/>
<path d="M47.45 39.8167H45.8667V41.4H47.45V39.8167Z" fill="white"/>
<path d="M45.867 41.4H44.2837V42.9834H45.867V41.4Z" fill="white"/>
<path d="M45.867 39.8167H44.2837V41.4H45.867V39.8167Z" fill="white"/>
<path d="M44.2835 41.4H42.7002V42.9834H44.2835V41.4Z" fill="white"/>
<path d="M44.2835 39.8167H42.7002V41.4H44.2835V39.8167Z" fill="white"/>
<path d="M42.7 41.4H41.1167V42.9834H42.7V41.4Z" fill="white"/>
<path d="M42.7 39.8167H41.1167V41.4H42.7V39.8167Z" fill="white"/>
<path d="M41.117 41.4H39.5337V42.9834H41.117V41.4Z" fill="white"/>
<path d="M41.117 39.8167H39.5337V41.4H41.117V39.8167Z" fill="white"/>
<path d="M39.5335 41.4H37.9502V42.9834H39.5335V41.4Z" fill="white"/>
<path d="M39.5335 39.8167H37.9502V41.4H39.5335V39.8167Z" fill="white"/>
<path d="M37.95 41.4H36.3667V42.9834H37.95V41.4Z" fill="white"/>
<path d="M37.95 39.8167H36.3667V41.4H37.95V39.8167Z" fill="white"/>
<path d="M36.367 41.4H34.7837V42.9834H36.367V41.4Z" fill="white"/>
<path d="M36.367 39.8167H34.7837V41.4H36.367V39.8167Z" fill="white"/>
<path d="M34.7835 41.4H33.2002V42.9834H34.7835V41.4Z" fill="white"/>
<path d="M34.7835 39.8167H33.2002V41.4H34.7835V39.8167Z" fill="white"/>
<path d="M33.2 41.4H31.6167V42.9834H33.2V41.4Z" fill="white"/>
<path d="M33.2 39.8167H31.6167V41.4H33.2V39.8167Z" fill="white"/>
<path d="M31.617 41.4H30.0337V42.9834H31.617V41.4Z" fill="white"/>
<path d="M31.617 39.8167H30.0337V41.4H31.617V39.8167Z" fill="white"/>
<path d="M30.0335 41.4H28.4502V42.9834H30.0335V41.4Z" fill="white"/>
<path d="M30.0335 39.8167H28.4502V41.4H30.0335V39.8167Z" fill="white"/>
<path d="M28.45 41.4H26.8667V42.9834H28.45V41.4Z" fill="white"/>
<path d="M28.45 39.8167H26.8667V41.4H28.45V39.8167Z" fill="white"/>
<path d="M26.867 39.8167H25.2837V41.4H26.867V39.8167Z" fill="white"/>
<path d="M25.2835 39.8167H23.7002V41.4H25.2835V39.8167Z" fill="white"/>
<path d="M25.2835 38.2333H23.7002V39.8166H25.2835V38.2333Z" fill="white"/>
<path d="M23.7 38.2333H22.1167V39.8166H23.7V38.2333Z" fill="white"/>
<path d="M23.7 36.65H22.1167V38.2334H23.7V36.65Z" fill="white"/>
<path d="M23.7 35.0667H22.1167V36.65H23.7V35.0667Z" fill="white"/>
<path d="M25.2835 35.0667H23.7002V36.65H25.2835V35.0667Z" fill="white"/>
<path d="M26.867 35.0667H25.2837V36.65H26.867V35.0667Z" fill="white"/>
<path d="M28.45 35.0667H26.8667V36.65H28.45V35.0667Z" fill="white"/>
<path d="M30.0335 35.0667H28.4502V36.65H30.0335V35.0667Z" fill="white"/>
<path d="M28.45 33.4833H26.8667V35.0666H28.45V33.4833Z" fill="white"/>
<path d="M26.867 33.4833H25.2837V35.0666H26.867V33.4833Z" fill="white"/>
<path d="M25.2835 33.4833H23.7002V35.0666H25.2835V33.4833Z" fill="white"/>
<path d="M23.7 33.4833H22.1167V35.0666H23.7V33.4833Z" fill="white"/>
<path d="M23.7 33.4833H22.1167V35.0666H23.7V33.4833Z" fill="white"/>
<path d="M22.117 33.4833H20.5337V35.0666H22.117V33.4833Z" fill="white"/>
<path d="M22.117 35.0667H20.5337V36.65H22.117V35.0667Z" fill="white"/>
<path d="M31.617 36.65H30.0337V38.2334H31.617V36.65Z" fill="white"/>
<path d="M33.2 36.65H31.6167V38.2334H33.2V36.65Z" fill="white"/>
<path d="M34.7835 36.65H33.2002V38.2334H34.7835V36.65Z" fill="white"/>
<path d="M36.367 36.65H34.7837V38.2334H36.367V36.65Z" fill="white"/>
<path d="M25.2835 36.65H23.7002V38.2334H25.2835V36.65Z" fill="white"/>
<path d="M26.867 36.65H25.2837V38.2334H26.867V36.65Z" fill="white"/>
<path d="M28.45 36.65H26.8667V38.2334H28.45V36.65Z" fill="white"/>
<path d="M30.0335 36.65H28.4502V38.2334H30.0335V36.65Z" fill="white"/>
<path d="M30.0335 38.2333H28.4502V39.8166H30.0335V38.2333Z" fill="white"/>
<path d="M31.617 38.2333H30.0337V39.8166H31.617V38.2333Z" fill="white"/>
<path d="M34.7835 38.2333H33.2002V39.8166H34.7835V38.2333Z" fill="white"/>
<path d="M36.367 38.2333H34.7837V39.8166H36.367V38.2333Z" fill="white"/>
<path d="M33.2 38.2333H31.6167V39.8166H33.2V38.2333Z" fill="white"/>
<path d="M28.45 38.2333H26.8667V39.8166H28.45V38.2333Z" fill="white"/>
<path d="M26.867 38.2333H25.2837V39.8166H26.867V38.2333Z" fill="white"/>
<path d="M41.117 38.2333H39.5337V39.8166H41.117V38.2333Z" fill="white"/>
<path d="M42.7 38.2333H41.1167V39.8166H42.7V38.2333Z" fill="white"/>
<path d="M37.95 33.4833H36.3667V35.0666H37.95V33.4833Z" fill="white"/>
<path d="M36.367 33.4833H34.7837V35.0666H36.367V33.4833Z" fill="white"/>
<path d="M34.7835 33.4833H33.2002V35.0666H34.7835V33.4833Z" fill="white"/>
<path d="M33.2 33.4833H31.6167V35.0666H33.2V33.4833Z" fill="white"/>
<path d="M34.7835 31.9H33.2002V33.4834H34.7835V31.9Z" fill="white"/>
<path d="M36.367 30.3167H34.7837V31.9H36.367V30.3167Z" fill="white"/>
<path d="M36.367 28.7333H34.7837V30.3166H36.367V28.7333Z" fill="white"/>
<path d="M36.367 27.15H34.7837V28.7334H36.367V27.15Z" fill="white"/>
<path d="M36.367 25.5667H34.7837V27.15H36.367V25.5667Z" fill="white"/>
<path d="M36.367 23.9833H34.7837V25.5666H36.367V23.9833Z" fill="white"/>
<path d="M36.367 22.4H34.7837V23.9834H36.367V22.4Z" fill="white"/>
<path d="M36.367 20.8167H34.7837V22.4H36.367V20.8167Z" fill="white"/>
<path d="M34.7835 19.2333H33.2002V20.8166H34.7835V19.2333Z" fill="white"/>
<path d="M33.2 17.65H31.6167V19.2334H33.2V17.65Z" fill="white"/>
<path d="M31.617 20.8167H30.0337V22.4H31.617V20.8167Z" fill="white"/>
<path d="M31.617 22.4H30.0337V23.9834H31.617V22.4Z" fill="white"/>
<path d="M31.617 23.9833H30.0337V25.5666H31.617V23.9833Z" fill="white"/>
<path d="M33.2 25.5667H31.6167V27.15H33.2V25.5667Z" fill="white"/>
<path d="M31.617 25.5667H30.0337V27.15H31.617V25.5667Z" fill="white"/>
<path d="M31.617 27.15H30.0337V28.7334H31.617V27.15Z" fill="white"/>
<path d="M30.0335 25.5667H28.4502V27.15H30.0335V25.5667Z" fill="white"/>
<path d="M30.0335 27.15H28.4502V28.7334H30.0335V27.15Z" fill="white"/>
<path d="M30.0335 28.7333H28.4502V30.3166H30.0335V28.7333Z" fill="white"/>
<path d="M28.45 28.7333H26.8667V30.3166H28.45V28.7333Z" fill="white"/>
<path d="M28.45 27.15H26.8667V28.7334H28.45V27.15Z" fill="white"/>
<path d="M33.2 27.15H31.6167V28.7334H33.2V27.15Z" fill="white"/>
<path d="M31.617 28.7333H30.0337V30.3166H31.617V28.7333Z" fill="white"/>
<path d="M30.0335 30.3167H28.4502V31.9H30.0335V30.3167Z" fill="white"/>
<path d="M28.45 30.3167H26.8667V31.9H28.45V30.3167Z" fill="white"/>
<path d="M26.867 30.3167H25.2837V31.9H26.867V30.3167Z" fill="white"/>
<path d="M23.7004 30.3167H25.2837V31.9H23.7004V30.3167Z" fill="white"/>
<path d="M25.2834 28.7333H26.8667V30.3166H25.2834V28.7333Z" fill="white"/>
<path d="M25.2834 27.15H26.8667V28.7334H25.2834V27.15Z" fill="white"/>
<path d="M26.8669 25.5667H28.4502V27.15H26.8669V25.5667Z" fill="white"/>
<path d="M28.4504 23.9833H30.0337V25.5666H28.4504V23.9833Z" fill="white"/>
<path d="M28.4504 22.4H30.0337V23.9834H28.4504V22.4Z" fill="white"/>
<path d="M34.7835 17.65H33.2002V19.2334H34.7835V17.65Z" fill="white"/>
<path d="M36.367 19.2333H34.7837V20.8166H36.367V19.2333Z" fill="white"/>
</g>
<defs>
<clipPath id="clip0_118_772">
<rect width="64" height="49" fill="white" transform="translate(5 5)"/>
</clipPath>
</defs>
</svg>
