<svg width="40" height="40" viewBox="0 0 40 40" fill="none" xmlns="http://www.w3.org/2000/svg">
<g clip-path="url(#clip0_246_117)">
<rect width="40" height="40" fill="#E2E2E2"/>
<path d="M15 40V25H13.3333V21.6667H11.6666V20H13.3333V10H16.6666V26.6667H18.3333V30H20V40" fill="#CCCDCC"/>
<path d="M20 40V30H18.3334V26.6667H25V30H28.3334V31.6667H30V40" fill="#E2E2E2"/>
<path d="M18.3333 21.6667H16.6666V10H25V11.6667H26.6666V18.3333H18.3333" fill="#E2E2E2"/>
<path d="M16.6666 26.6667V21.6667H18.3333V18.3333H26.6666V26.6667" fill="#EFEFED"/>
<path d="M11.6666 40V30H15V40" fill="#CCCDCC"/>
<path d="M10 40V31.6667H11.6667V40" fill="#CCCDCC"/>
<path d="M10 21.6667V20H11.6667V21.6667" fill="#E2E2E2"/>
<path d="M11.6667 10V18.3333H8.33337V23.3333H11.6667V25H15V26.6667H13.3334V8.33334H25V11.6667H28.3334V26.6667H25V28.3333H26.6667V10H11.6667ZM10 20H11.6667V21.6667H10" fill="#7A7C7F"/>
<path d="M25 23.3333H20V21.6667H25" fill="#7A7C7F"/>
<path d="M20 20V18.3333H21.6667V20" fill="#7A7C7F"/>
<path d="M23.3334 20V18.3333H25V20" fill="#7A7C7F"/>
<path d="M23.3334 31.6667H21.6667V26.6667H15V30H10V36.6667H13.3334V35H15V40H13.3334V38.3333H10V40H8.33337V31.6667H11.6667V28.3333H26.6667V31.6667H30V40H28.3334V38.3333H26.6667V40H25V35H26.6667V36.6667H28.3334V30H25V26.6667H23.3334" fill="#7A7C7F"/>
<path d="M16.6666 18.3333V16.6667H18.3333V18.3333" fill="#7A7C7F"/>
<path d="M30 18.3333V16.6667H31.6667V18.3333" fill="#7A7C7F"/>
</g>
<defs>
<clipPath id="clip0_246_117">
<rect width="40" height="40" fill="white"/>
</clipPath>
</defs>
</svg>
