<svg width="34" height="35" viewBox="0 0 34 35" fill="none" xmlns="http://www.w3.org/2000/svg">
<g clip-path="url(#clip0_118_154)">
<rect x="15.5833" y="0.5" width="1.41667" height="1.41667" fill="#21345E"/>
<rect x="15.5833" y="1.91675" width="1.41667" height="1.41667" fill="#21345E"/>
<rect x="15.5833" y="3.33325" width="1.41667" height="1.41667" fill="#21345E"/>
<rect x="15.5833" y="4.75" width="1.41667" height="1.41667" fill="#21345E"/>
<rect x="15.5833" y="6.16675" width="1.41667" height="1.41667" fill="#21345E"/>
<rect x="15.5833" y="9" width="1.41667" height="1.41667" fill="#21345E"/>
<rect x="15.5833" y="11.8333" width="1.41667" height="1.41667" fill="white"/>
<rect x="15.5833" y="14.6667" width="1.41667" height="1.41667" fill="white"/>
<rect x="15.5833" y="17.5" width="1.41667" height="1.41667" fill="white"/>
<rect x="15.5833" y="20.3333" width="1.41667" height="1.41667" fill="white"/>
<rect x="15.5833" y="23.1667" width="1.41667" height="1.41667" fill="white"/>
<rect x="15.5833" y="26" width="1.41667" height="1.41667" fill="white"/>
<rect x="15.5833" y="7.58325" width="1.41667" height="1.41667" fill="#21345E"/>
<rect x="15.5833" y="10.4167" width="1.41667" height="1.41667" fill="#21345E"/>
<rect x="15.5833" y="13.25" width="1.41667" height="1.41667" fill="white"/>
<rect x="15.5833" y="16.0833" width="1.41667" height="1.41667" fill="white"/>
<rect x="15.5833" y="18.9167" width="1.41667" height="1.41667" fill="white"/>
<rect x="15.5833" y="21.75" width="1.41667" height="1.41667" fill="white"/>
<rect x="15.5833" y="24.5833" width="1.41667" height="1.41667" fill="white"/>
<rect x="15.5833" y="27.4167" width="1.41667" height="1.41667" fill="white"/>
<rect x="15.5833" y="28.8333" width="1.41667" height="1.41667" fill="#979797"/>
<rect x="15.5833" y="30.25" width="1.41667" height="1.41667" fill="#979797"/>
<rect x="15.5833" y="31.6667" width="1.41667" height="1.41667" fill="#979797"/>
<rect x="17" y="0.5" width="1.41667" height="1.41667" fill="#21345E"/>
<rect x="17" y="1.91675" width="1.41667" height="1.41667" fill="#21345E"/>
<rect x="17" y="3.33325" width="1.41667" height="1.41667" fill="#21345E"/>
<rect x="17" y="4.75" width="1.41667" height="1.41667" fill="#21345E"/>
<rect x="17" y="6.16675" width="1.41667" height="1.41667" fill="#21345E"/>
<rect x="17" y="9" width="1.41667" height="1.41667" fill="#21345E"/>
<rect x="17" y="11.8333" width="1.41667" height="1.41667" fill="white"/>
<rect x="17" y="14.6667" width="1.41667" height="1.41667" fill="white"/>
<rect x="17" y="17.5" width="1.41667" height="1.41667" fill="white"/>
<rect x="17" y="20.3333" width="1.41667" height="1.41667" fill="white"/>
<rect x="17" y="23.1667" width="1.41667" height="1.41667" fill="white"/>
<rect x="17" y="26" width="1.41667" height="1.41667" fill="white"/>
<rect x="17" y="7.58325" width="1.41667" height="1.41667" fill="#21345E"/>
<rect x="17" y="10.4167" width="1.41667" height="1.41667" fill="#21345E"/>
<rect x="17" y="13.25" width="1.41667" height="1.41667" fill="white"/>
<rect x="17" y="16.0833" width="1.41667" height="1.41667" fill="white"/>
<rect x="17" y="18.9167" width="1.41667" height="1.41667" fill="white"/>
<rect x="17" y="21.75" width="1.41667" height="1.41667" fill="white"/>
<rect x="17" y="24.5833" width="1.41667" height="1.41667" fill="white"/>
<rect x="17" y="27.4167" width="1.41667" height="1.41667" fill="white"/>
<rect x="17" y="28.8333" width="1.41667" height="1.41667" fill="#979797"/>
<rect x="17" y="30.25" width="1.41667" height="1.41667" fill="#979797"/>
<rect x="17" y="31.6667" width="1.41667" height="1.41667" fill="#979797"/>
<rect x="18.4167" y="0.5" width="1.41667" height="1.41667" fill="#21345E"/>
<rect x="18.4167" y="1.91675" width="1.41667" height="1.41667" fill="#21345E"/>
<rect x="18.4167" y="3.33325" width="1.41667" height="1.41667" fill="#21345E"/>
<rect x="18.4167" y="4.75" width="1.41667" height="1.41667" fill="#21345E"/>
<rect x="18.4167" y="6.16675" width="1.41667" height="1.41667" fill="#21345E"/>
<rect x="18.4167" y="9" width="1.41667" height="1.41667" fill="#21345E"/>
<rect x="18.4167" y="11.8333" width="1.41667" height="1.41667" fill="#21345E"/>
<rect x="18.4167" y="14.6667" width="1.41667" height="1.41667" fill="white"/>
<rect x="18.4167" y="17.5" width="1.41667" height="1.41667" fill="white"/>
<rect x="18.4167" y="20.3333" width="1.41667" height="1.41667" fill="white"/>
<rect x="18.4167" y="23.1667" width="1.41667" height="1.41667" fill="white"/>
<rect x="18.4167" y="26" width="1.41667" height="1.41667" fill="white"/>
<rect x="18.4167" y="7.58325" width="1.41667" height="1.41667" fill="#21345E"/>
<rect x="18.4167" y="10.4167" width="1.41667" height="1.41667" fill="#21345E"/>
<rect x="18.4167" y="13.25" width="1.41667" height="1.41667" fill="white"/>
<rect x="18.4167" y="16.0833" width="1.41667" height="1.41667" fill="white"/>
<rect x="18.4167" y="18.9167" width="1.41667" height="1.41667" fill="white"/>
<rect x="18.4167" y="21.75" width="1.41667" height="1.41667" fill="white"/>
<rect x="18.4167" y="24.5833" width="1.41667" height="1.41667" fill="white"/>
<rect x="18.4167" y="27.4167" width="1.41667" height="1.41667" fill="white"/>
<rect x="18.4167" y="28.8333" width="1.41667" height="1.41667" fill="#979797"/>
<rect x="18.4167" y="30.25" width="1.41667" height="1.41667" fill="#979797"/>
<rect x="18.4167" y="31.6667" width="1.41667" height="1.41667" fill="#979797"/>
<rect x="19.8333" y="0.5" width="1.41667" height="1.41667" fill="#21345E"/>
<rect x="19.8333" y="1.91675" width="1.41667" height="1.41667" fill="#21345E"/>
<rect x="19.8333" y="3.33325" width="1.41667" height="1.41667" fill="#21345E"/>
<rect x="19.8333" y="4.75" width="1.41667" height="1.41667" fill="#21345E"/>
<rect x="19.8333" y="6.16675" width="1.41667" height="1.41667" fill="#21345E"/>
<rect x="19.8333" y="9" width="1.41667" height="1.41667" fill="#21345E"/>
<rect x="19.8333" y="11.8333" width="1.41667" height="1.41667" fill="#21345E"/>
<rect x="19.8333" y="14.6667" width="1.41667" height="1.41667" fill="#21345E"/>
<rect x="19.8333" y="17.5" width="1.41667" height="1.41667" fill="#21345E"/>
<rect x="19.8333" y="20.3333" width="1.41667" height="1.41667" fill="#21345E"/>
<rect x="19.8333" y="23.1667" width="1.41667" height="1.41667" fill="white"/>
<rect x="19.8333" y="26" width="1.41667" height="1.41667" fill="white"/>
<rect x="19.8333" y="7.58325" width="1.41667" height="1.41667" fill="#21345E"/>
<rect x="19.8333" y="10.4167" width="1.41667" height="1.41667" fill="#21345E"/>
<rect x="19.8333" y="13.25" width="1.41667" height="1.41667" fill="#21345E"/>
<rect x="19.8333" y="16.0833" width="1.41667" height="1.41667" fill="#21345E"/>
<rect x="19.8333" y="18.9167" width="1.41667" height="1.41667" fill="#21345E"/>
<rect x="19.8333" y="21.75" width="1.41667" height="1.41667" fill="white"/>
<rect x="19.8333" y="24.5833" width="1.41667" height="1.41667" fill="white"/>
<rect x="19.8333" y="27.4167" width="1.41667" height="1.41667" fill="#979797"/>
<rect x="19.8333" y="28.8333" width="1.41667" height="1.41667" fill="#979797"/>
<rect x="19.8333" y="30.25" width="1.41667" height="1.41667" fill="#979797"/>
<rect x="19.8333" y="31.6667" width="1.41667" height="1.41667" fill="#979797"/>
<rect x="21.25" y="0.5" width="1.41667" height="1.41667" fill="#21345E"/>
<rect x="21.25" y="1.91675" width="1.41667" height="1.41667" fill="#21345E"/>
<rect x="21.25" y="3.33325" width="1.41667" height="1.41667" fill="#21345E"/>
<rect x="21.25" y="4.75" width="1.41667" height="1.41667" fill="#21345E"/>
<rect x="21.25" y="6.16675" width="1.41667" height="1.41667" fill="#21345E"/>
<rect x="21.25" y="9" width="1.41667" height="1.41667" fill="#21345E"/>
<rect x="21.25" y="11.8333" width="1.41667" height="1.41667" fill="#21345E"/>
<rect x="21.25" y="14.6667" width="1.41667" height="1.41667" fill="#21345E"/>
<rect x="21.25" y="17.5" width="1.41667" height="1.41667" fill="#21345E"/>
<rect x="21.25" y="20.3333" width="1.41667" height="1.41667" fill="white"/>
<rect x="21.25" y="23.1667" width="1.41667" height="1.41667" fill="white"/>
<rect x="21.25" y="26" width="1.41667" height="1.41667" fill="white"/>
<rect x="21.25" y="7.58325" width="1.41667" height="1.41667" fill="#21345E"/>
<rect x="21.25" y="10.4167" width="1.41667" height="1.41667" fill="#21345E"/>
<rect x="21.25" y="13.25" width="1.41667" height="1.41667" fill="#21345E"/>
<rect x="21.25" y="16.0833" width="1.41667" height="1.41667" fill="#21345E"/>
<rect x="21.25" y="18.9167" width="1.41667" height="1.41667" fill="#21345E"/>
<rect x="21.25" y="21.75" width="1.41667" height="1.41667" fill="white"/>
<rect x="21.25" y="24.5833" width="1.41667" height="1.41667" fill="white"/>
<rect x="21.25" y="27.4167" width="1.41667" height="1.41667" fill="#979797"/>
<rect x="21.25" y="28.8333" width="1.41667" height="1.41667" fill="#979797"/>
<rect x="21.25" y="30.25" width="1.41667" height="1.41667" fill="#979797"/>
<rect x="21.25" y="31.6667" width="1.41667" height="1.41667" fill="#979797"/>
<rect x="22.6667" y="1.91675" width="1.41667" height="1.41667" fill="#21345E"/>
<rect x="22.6667" y="3.33325" width="1.41667" height="1.41667" fill="#21345E"/>
<rect x="22.6667" y="4.75" width="1.41667" height="1.41667" fill="#21345E"/>
<rect x="22.6667" y="6.16675" width="1.41667" height="1.41667" fill="#21345E"/>
<rect x="22.6667" y="9" width="1.41667" height="1.41667" fill="white"/>
<rect x="22.6667" y="11.8333" width="1.41667" height="1.41667" fill="white"/>
<rect x="22.6667" y="14.6667" width="1.41667" height="1.41667" fill="white"/>
<rect x="22.6667" y="17.5" width="1.41667" height="1.41667" fill="white"/>
<rect x="22.6667" y="20.3333" width="1.41667" height="1.41667" fill="white"/>
<rect x="22.6667" y="23.1667" width="1.41667" height="1.41667" fill="white"/>
<rect x="22.6667" y="26" width="1.41667" height="1.41667" fill="#979797"/>
<rect x="22.6667" y="7.58325" width="1.41667" height="1.41667" fill="#21345E"/>
<rect x="22.6667" y="10.4167" width="1.41667" height="1.41667" fill="white"/>
<rect x="22.6667" y="13.25" width="1.41667" height="1.41667" fill="white"/>
<rect x="22.6667" y="16.0833" width="1.41667" height="1.41667" fill="white"/>
<rect x="22.6667" y="18.9167" width="1.41667" height="1.41667" fill="white"/>
<rect x="22.6667" y="21.75" width="1.41667" height="1.41667" fill="white"/>
<rect x="22.6667" y="24.5833" width="1.41667" height="1.41667" fill="white"/>
<rect x="22.6667" y="27.4167" width="1.41667" height="1.41667" fill="#979797"/>
<rect x="22.6667" y="28.8333" width="1.41667" height="1.41667" fill="#979797"/>
<rect x="22.6667" y="30.25" width="1.41667" height="1.41667" fill="#979797"/>
<rect x="24.0833" y="1.91675" width="1.41667" height="1.41667" fill="#21345E"/>
<rect x="24.0833" y="3.33325" width="1.41667" height="1.41667" fill="#21345E"/>
<rect x="24.0833" y="4.75" width="1.41667" height="1.41667" fill="#21345E"/>
<rect x="24.0833" y="6.16675" width="1.41667" height="1.41667" fill="#21345E"/>
<rect x="24.0833" y="9" width="1.41667" height="1.41667" fill="white"/>
<rect x="24.0833" y="11.8333" width="1.41667" height="1.41667" fill="white"/>
<rect x="24.0833" y="14.6667" width="1.41667" height="1.41667" fill="white"/>
<rect x="24.0833" y="17.5" width="1.41667" height="1.41667" fill="white"/>
<rect x="24.0833" y="20.3333" width="1.41667" height="1.41667" fill="white"/>
<rect x="24.0833" y="23.1667" width="1.41667" height="1.41667" fill="white"/>
<rect x="24.0833" y="26" width="1.41667" height="1.41667" fill="#979797"/>
<rect x="24.0833" y="7.58325" width="1.41667" height="1.41667" fill="white"/>
<rect x="24.0833" y="10.4167" width="1.41667" height="1.41667" fill="white"/>
<rect x="24.0833" y="13.25" width="1.41667" height="1.41667" fill="white"/>
<rect x="24.0833" y="16.0833" width="1.41667" height="1.41667" fill="white"/>
<rect x="24.0833" y="18.9167" width="1.41667" height="1.41667" fill="white"/>
<rect x="24.0833" y="21.75" width="1.41667" height="1.41667" fill="white"/>
<rect x="24.0833" y="24.5833" width="1.41667" height="1.41667" fill="white"/>
<rect x="24.0833" y="27.4167" width="1.41667" height="1.41667" fill="#979797"/>
<rect x="24.0833" y="28.8333" width="1.41667" height="1.41667" fill="#979797"/>
<rect x="24.0833" y="30.25" width="1.41667" height="1.41667" fill="#979797"/>
<rect x="25.5" y="3.33325" width="1.41667" height="1.41667" fill="#21345E"/>
<rect x="25.5" y="4.75" width="1.41667" height="1.41667" fill="#21345E"/>
<rect x="25.5" y="6.16675" width="1.41667" height="1.41667" fill="#21345E"/>
<rect x="25.5" y="9" width="1.41667" height="1.41667" fill="white"/>
<rect x="25.5" y="11.8333" width="1.41667" height="1.41667" fill="white"/>
<rect x="25.5" y="14.6667" width="1.41667" height="1.41667" fill="white"/>
<rect x="25.5" y="17.5" width="1.41667" height="1.41667" fill="white"/>
<rect x="25.5" y="20.3333" width="1.41667" height="1.41667" fill="white"/>
<rect x="25.5" y="23.1667" width="1.41667" height="1.41667" fill="white"/>
<rect x="25.5" y="26" width="1.41667" height="1.41667" fill="#979797"/>
<rect x="25.5" y="7.58325" width="1.41667" height="1.41667" fill="white"/>
<rect x="25.5" y="10.4167" width="1.41667" height="1.41667" fill="white"/>
<rect x="25.5" y="13.25" width="1.41667" height="1.41667" fill="white"/>
<rect x="25.5" y="16.0833" width="1.41667" height="1.41667" fill="white"/>
<rect x="25.5" y="18.9167" width="1.41667" height="1.41667" fill="white"/>
<rect x="25.5" y="21.75" width="1.41667" height="1.41667" fill="white"/>
<rect x="25.5" y="24.5833" width="1.41667" height="1.41667" fill="#979797"/>
<rect x="25.5" y="27.4167" width="1.41667" height="1.41667" fill="#979797"/>
<rect x="25.5" y="28.8333" width="1.41667" height="1.41667" fill="#979797"/>
<rect x="26.9167" y="3.33325" width="1.41667" height="1.41667" fill="#21345E"/>
<rect x="26.9167" y="4.75" width="1.41667" height="1.41667" fill="#21345E"/>
<rect x="26.9167" y="6.16675" width="1.41667" height="1.41667" fill="#21345E"/>
<rect x="26.9167" y="9" width="1.41667" height="1.41667" fill="white"/>
<rect x="26.9167" y="11.8333" width="1.41667" height="1.41667" fill="white"/>
<rect x="26.9167" y="14.6667" width="1.41667" height="1.41667" fill="white"/>
<rect x="26.9167" y="17.5" width="1.41667" height="1.41667" fill="white"/>
<rect x="26.9167" y="20.3333" width="1.41667" height="1.41667" fill="white"/>
<rect x="26.9167" y="23.1667" width="1.41667" height="1.41667" fill="white"/>
<rect x="26.9167" y="26" width="1.41667" height="1.41667" fill="#979797"/>
<rect x="26.9167" y="7.58325" width="1.41667" height="1.41667" fill="#21345E"/>
<rect x="26.9167" y="10.4167" width="1.41667" height="1.41667" fill="white"/>
<rect x="26.9167" y="13.25" width="1.41667" height="1.41667" fill="white"/>
<rect x="26.9167" y="16.0833" width="1.41667" height="1.41667" fill="white"/>
<rect x="26.9167" y="18.9167" width="1.41667" height="1.41667" fill="white"/>
<rect x="26.9167" y="21.75" width="1.41667" height="1.41667" fill="white"/>
<rect x="26.9167" y="24.5833" width="1.41667" height="1.41667" fill="#979797"/>
<rect x="26.9167" y="27.4167" width="1.41667" height="1.41667" fill="#979797"/>
<rect x="26.9167" y="28.8333" width="1.41667" height="1.41667" fill="#979797"/>
<rect x="28.3333" y="4.75" width="1.41667" height="1.41667" fill="#21345E"/>
<rect x="28.3333" y="6.16675" width="1.41667" height="1.41667" fill="#21345E"/>
<rect x="28.3333" y="9" width="1.41667" height="1.41667" fill="#21345E"/>
<rect x="28.3333" y="11.8333" width="1.41667" height="1.41667" fill="#21345E"/>
<rect x="28.3333" y="14.6667" width="1.41667" height="1.41667" fill="#21345E"/>
<rect x="28.3333" y="17.5" width="1.41667" height="1.41667" fill="#21345E"/>
<rect x="28.3333" y="20.3333" width="1.41667" height="1.41667" fill="white"/>
<rect x="28.3333" y="23.1667" width="1.41667" height="1.41667" fill="#979797"/>
<rect x="28.3333" y="26" width="1.41667" height="1.41667" fill="#979797"/>
<rect x="28.3333" y="7.58325" width="1.41667" height="1.41667" fill="#21345E"/>
<rect x="28.3333" y="10.4167" width="1.41667" height="1.41667" fill="#21345E"/>
<rect x="28.3333" y="13.25" width="1.41667" height="1.41667" fill="#21345E"/>
<rect x="28.3333" y="16.0833" width="1.41667" height="1.41667" fill="#21345E"/>
<rect x="28.3333" y="18.9167" width="1.41667" height="1.41667" fill="white"/>
<rect x="28.3333" y="21.75" width="1.41667" height="1.41667" fill="white"/>
<rect x="28.3333" y="24.5833" width="1.41667" height="1.41667" fill="#979797"/>
<rect x="28.3333" y="27.4167" width="1.41667" height="1.41667" fill="#979797"/>
<rect x="29.75" y="6.16675" width="1.41667" height="1.41667" fill="#21345E"/>
<rect x="29.75" y="9" width="1.41667" height="1.41667" fill="#21345E"/>
<rect x="29.75" y="11.8333" width="1.41667" height="1.41667" fill="#21345E"/>
<rect x="29.75" y="14.6667" width="1.41667" height="1.41667" fill="#21345E"/>
<rect x="29.75" y="17.5" width="1.41667" height="1.41667" fill="#21345E"/>
<rect x="29.75" y="20.3333" width="1.41667" height="1.41667" fill="white"/>
<rect x="29.75" y="23.1667" width="1.41667" height="1.41667" fill="#979797"/>
<rect x="29.75" y="7.58325" width="1.41667" height="1.41667" fill="#21345E"/>
<rect x="29.75" y="10.4167" width="1.41667" height="1.41667" fill="#21345E"/>
<rect x="29.75" y="13.25" width="1.41667" height="1.41667" fill="#21345E"/>
<rect x="29.75" y="16.0833" width="1.41667" height="1.41667" fill="#21345E"/>
<rect x="29.75" y="18.9167" width="1.41667" height="1.41667" fill="white"/>
<rect x="29.75" y="21.75" width="1.41667" height="1.41667" fill="white"/>
<rect x="29.75" y="24.5833" width="1.41667" height="1.41667" fill="#979797"/>
<rect x="31.1667" y="9" width="1.41667" height="1.41667" fill="#21345E"/>
<rect x="31.1667" y="10.4167" width="1.41667" height="1.41667" fill="#21345E"/>
<rect x="32.5833" y="11.8333" width="1.41667" height="1.41667" fill="#21345E"/>
<rect x="31.1667" y="11.8333" width="1.41667" height="1.41667" fill="#21345E"/>
<rect x="32.5833" y="13.25" width="1.41667" height="1.41667" fill="#21345E"/>
<rect x="31.1667" y="13.25" width="1.41667" height="1.41667" fill="#21345E"/>
<rect x="32.5833" y="14.6667" width="1.41667" height="1.41667" fill="#21345E"/>
<rect x="31.1667" y="14.6667" width="1.41667" height="1.41667" fill="#21345E"/>
<rect x="32.5833" y="16.0833" width="1.41667" height="1.41667" fill="white"/>
<rect x="31.1667" y="16.0833" width="1.41667" height="1.41667" fill="#21345E"/>
<rect x="32.5833" y="17.5" width="1.41667" height="1.41667" fill="white"/>
<rect x="31.1667" y="17.5" width="1.41667" height="1.41667" fill="white"/>
<rect x="32.5833" y="18.9167" width="1.41667" height="1.41667" fill="white"/>
<rect x="31.1667" y="18.9167" width="1.41667" height="1.41667" fill="white"/>
<rect x="32.5833" y="20.3333" width="1.41667" height="1.41667" fill="#979797"/>
<rect x="31.1667" y="20.3333" width="1.41667" height="1.41667" fill="white"/>
<rect x="32.5833" y="21.75" width="1.41667" height="1.41667" fill="#979797"/>
<rect x="31.1667" y="21.75" width="1.41667" height="1.41667" fill="#979797"/>
<rect x="14.1667" y="0.5" width="1.41667" height="1.41667" fill="#21345E"/>
<rect x="14.1667" y="1.91675" width="1.41667" height="1.41667" fill="#21345E"/>
<rect x="14.1667" y="3.33325" width="1.41667" height="1.41667" fill="#21345E"/>
<rect x="14.1667" y="4.75" width="1.41667" height="1.41667" fill="#21345E"/>
<rect x="14.1667" y="6.16675" width="1.41667" height="1.41667" fill="#21345E"/>
<rect x="14.1667" y="9" width="1.41667" height="1.41667" fill="#21345E"/>
<rect x="14.1667" y="11.8333" width="1.41667" height="1.41667" fill="#21345E"/>
<rect x="14.1667" y="14.6667" width="1.41667" height="1.41667" fill="white"/>
<rect x="14.1667" y="17.5" width="1.41667" height="1.41667" fill="white"/>
<rect x="14.1667" y="20.3333" width="1.41667" height="1.41667" fill="white"/>
<rect x="14.1667" y="23.1667" width="1.41667" height="1.41667" fill="white"/>
<rect x="14.1667" y="26" width="1.41667" height="1.41667" fill="white"/>
<rect x="14.1667" y="7.58325" width="1.41667" height="1.41667" fill="#21345E"/>
<rect x="14.1667" y="10.4167" width="1.41667" height="1.41667" fill="#21345E"/>
<rect x="14.1667" y="13.25" width="1.41667" height="1.41667" fill="white"/>
<rect x="14.1667" y="16.0833" width="1.41667" height="1.41667" fill="white"/>
<rect x="14.1667" y="18.9167" width="1.41667" height="1.41667" fill="white"/>
<rect x="14.1667" y="21.75" width="1.41667" height="1.41667" fill="white"/>
<rect x="14.1667" y="24.5833" width="1.41667" height="1.41667" fill="white"/>
<rect x="14.1667" y="27.4167" width="1.41667" height="1.41667" fill="white"/>
<rect x="14.1667" y="28.8333" width="1.41667" height="1.41667" fill="#979797"/>
<rect x="14.1667" y="30.25" width="1.41667" height="1.41667" fill="#979797"/>
<rect x="14.1667" y="31.6667" width="1.41667" height="1.41667" fill="#979797"/>
<rect x="12.75" y="0.5" width="1.41667" height="1.41667" fill="#21345E"/>
<rect x="12.75" y="1.91675" width="1.41667" height="1.41667" fill="#21345E"/>
<rect x="12.75" y="3.33325" width="1.41667" height="1.41667" fill="#21345E"/>
<rect x="12.75" y="4.75" width="1.41667" height="1.41667" fill="#21345E"/>
<rect x="12.75" y="6.16675" width="1.41667" height="1.41667" fill="#21345E"/>
<rect x="12.75" y="9" width="1.41667" height="1.41667" fill="#21345E"/>
<rect x="12.75" y="11.8333" width="1.41667" height="1.41667" fill="#21345E"/>
<rect x="12.75" y="14.6667" width="1.41667" height="1.41667" fill="#21345E"/>
<rect x="12.75" y="17.5" width="1.41667" height="1.41667" fill="#21345E"/>
<rect x="12.75" y="20.3333" width="1.41667" height="1.41667" fill="#21345E"/>
<rect x="12.75" y="23.1667" width="1.41667" height="1.41667" fill="white"/>
<rect x="12.75" y="26" width="1.41667" height="1.41667" fill="white"/>
<rect x="12.75" y="7.58325" width="1.41667" height="1.41667" fill="#21345E"/>
<rect x="12.75" y="10.4167" width="1.41667" height="1.41667" fill="#21345E"/>
<rect x="12.75" y="13.25" width="1.41667" height="1.41667" fill="#21345E"/>
<rect x="12.75" y="16.0833" width="1.41667" height="1.41667" fill="#21345E"/>
<rect x="12.75" y="18.9167" width="1.41667" height="1.41667" fill="#21345E"/>
<rect x="12.75" y="21.75" width="1.41667" height="1.41667" fill="#21345E"/>
<rect x="12.75" y="24.5833" width="1.41667" height="1.41667" fill="white"/>
<rect x="12.75" y="27.4167" width="1.41667" height="1.41667" fill="white"/>
<rect x="12.75" y="28.8333" width="1.41667" height="1.41667" fill="white"/>
<rect x="12.75" y="30.25" width="1.41667" height="1.41667" fill="#979797"/>
<rect x="12.75" y="31.6667" width="1.41667" height="1.41667" fill="#979797"/>
<rect x="11.3335" y="0.5" width="1.41667" height="1.41667" fill="#21345E"/>
<rect x="11.3335" y="1.91675" width="1.41667" height="1.41667" fill="#21345E"/>
<rect x="11.3335" y="3.33325" width="1.41667" height="1.41667" fill="#21345E"/>
<rect x="11.3335" y="4.75" width="1.41667" height="1.41667" fill="#21345E"/>
<rect x="11.3335" y="6.16675" width="1.41667" height="1.41667" fill="#21345E"/>
<rect x="11.3335" y="9" width="1.41667" height="1.41667" fill="#21345E"/>
<rect x="11.3335" y="11.8333" width="1.41667" height="1.41667" fill="#21345E"/>
<rect x="11.3335" y="14.6667" width="1.41667" height="1.41667" fill="#21345E"/>
<rect x="11.3335" y="17.5" width="1.41667" height="1.41667" fill="#21345E"/>
<rect x="11.3335" y="20.3333" width="1.41667" height="1.41667" fill="#21345E"/>
<rect x="11.3335" y="23.1667" width="1.41667" height="1.41667" fill="#21345E"/>
<rect x="11.3335" y="26" width="1.41667" height="1.41667" fill="white"/>
<rect x="11.3335" y="7.58325" width="1.41667" height="1.41667" fill="#21345E"/>
<rect x="11.3335" y="10.4167" width="1.41667" height="1.41667" fill="#21345E"/>
<rect x="11.3335" y="13.25" width="1.41667" height="1.41667" fill="#21345E"/>
<rect x="11.3335" y="16.0833" width="1.41667" height="1.41667" fill="#21345E"/>
<rect x="11.3335" y="18.9167" width="1.41667" height="1.41667" fill="#21345E"/>
<rect x="11.3335" y="21.75" width="1.41667" height="1.41667" fill="#21345E"/>
<rect x="11.3335" y="24.5833" width="1.41667" height="1.41667" fill="white"/>
<rect x="11.3335" y="27.4167" width="1.41667" height="1.41667" fill="white"/>
<rect x="11.3335" y="28.8333" width="1.41667" height="1.41667" fill="white"/>
<rect x="11.3335" y="30.25" width="1.41667" height="1.41667" fill="#979797"/>
<rect x="11.3335" y="31.6667" width="1.41667" height="1.41667" fill="#979797"/>
<rect x="9.9165" y="1.91675" width="1.41667" height="1.41667" fill="#21345E"/>
<rect x="9.9165" y="3.33325" width="1.41667" height="1.41667" fill="#21345E"/>
<rect x="9.9165" y="4.75" width="1.41667" height="1.41667" fill="#21345E"/>
<rect x="9.9165" y="6.16675" width="1.41667" height="1.41667" fill="#21345E"/>
<rect x="9.9165" y="9" width="1.41667" height="1.41667" fill="#21345E"/>
<rect x="9.9165" y="11.8333" width="1.41667" height="1.41667" fill="#21345E"/>
<rect x="9.9165" y="14.6667" width="1.41667" height="1.41667" fill="#21345E"/>
<rect x="9.9165" y="17.5" width="1.41667" height="1.41667" fill="white"/>
<rect x="9.9165" y="20.3333" width="1.41667" height="1.41667" fill="white"/>
<rect x="9.9165" y="23.1667" width="1.41667" height="1.41667" fill="white"/>
<rect x="9.9165" y="26" width="1.41667" height="1.41667" fill="white"/>
<rect x="9.9165" y="7.58325" width="1.41667" height="1.41667" fill="#21345E"/>
<rect x="9.9165" y="10.4167" width="1.41667" height="1.41667" fill="#21345E"/>
<rect x="9.9165" y="13.25" width="1.41667" height="1.41667" fill="#21345E"/>
<rect x="9.9165" y="16.0833" width="1.41667" height="1.41667" fill="#21345E"/>
<rect x="9.9165" y="18.9167" width="1.41667" height="1.41667" fill="white"/>
<rect x="9.9165" y="21.75" width="1.41667" height="1.41667" fill="white"/>
<rect x="9.9165" y="24.5833" width="1.41667" height="1.41667" fill="white"/>
<rect x="9.9165" y="27.4167" width="1.41667" height="1.41667" fill="white"/>
<rect x="9.9165" y="28.8333" width="1.41667" height="1.41667" fill="white"/>
<rect x="9.9165" y="30.25" width="1.41667" height="1.41667" fill="#979797"/>
<rect x="8.5" y="1.91675" width="1.41667" height="1.41667" fill="#21345E"/>
<rect x="8.5" y="3.33325" width="1.41667" height="1.41667" fill="#21345E"/>
<rect x="8.5" y="4.75" width="1.41667" height="1.41667" fill="#21345E"/>
<rect x="8.5" y="6.16675" width="1.41667" height="1.41667" fill="#21345E"/>
<rect x="8.5" y="9" width="1.41667" height="1.41667" fill="#21345E"/>
<rect x="8.5" y="11.8333" width="1.41667" height="1.41667" fill="#21345E"/>
<rect x="8.5" y="14.6667" width="1.41667" height="1.41667" fill="#21345E"/>
<rect x="8.5" y="17.5" width="1.41667" height="1.41667" fill="white"/>
<rect x="8.5" y="20.3333" width="1.41667" height="1.41667" fill="white"/>
<rect x="8.5" y="23.1667" width="1.41667" height="1.41667" fill="white"/>
<rect x="8.5" y="26" width="1.41667" height="1.41667" fill="white"/>
<rect x="8.5" y="7.58325" width="1.41667" height="1.41667" fill="#21345E"/>
<rect x="8.5" y="10.4167" width="1.41667" height="1.41667" fill="#21345E"/>
<rect x="8.5" y="13.25" width="1.41667" height="1.41667" fill="#21345E"/>
<rect x="8.5" y="16.0833" width="1.41667" height="1.41667" fill="white"/>
<rect x="8.5" y="18.9167" width="1.41667" height="1.41667" fill="white"/>
<rect x="8.5" y="21.75" width="1.41667" height="1.41667" fill="white"/>
<rect x="8.5" y="24.5833" width="1.41667" height="1.41667" fill="white"/>
<rect x="8.5" y="27.4167" width="1.41667" height="1.41667" fill="white"/>
<rect x="8.5" y="28.8333" width="1.41667" height="1.41667" fill="white"/>
<rect x="8.5" y="30.25" width="1.41667" height="1.41667" fill="#979797"/>
<rect x="7.0835" y="3.33325" width="1.41667" height="1.41667" fill="#21345E"/>
<rect x="7.0835" y="4.75" width="1.41667" height="1.41667" fill="#21345E"/>
<rect x="7.0835" y="6.16675" width="1.41667" height="1.41667" fill="#21345E"/>
<rect x="7.0835" y="9" width="1.41667" height="1.41667" fill="#21345E"/>
<rect x="7.0835" y="11.8333" width="1.41667" height="1.41667" fill="#21345E"/>
<rect x="7.0835" y="14.6667" width="1.41667" height="1.41667" fill="#21345E"/>
<rect x="7.0835" y="17.5" width="1.41667" height="1.41667" fill="white"/>
<rect x="7.0835" y="20.3333" width="1.41667" height="1.41667" fill="white"/>
<rect x="7.0835" y="23.1667" width="1.41667" height="1.41667" fill="white"/>
<rect x="7.0835" y="26" width="1.41667" height="1.41667" fill="white"/>
<rect x="7.0835" y="7.58325" width="1.41667" height="1.41667" fill="#21345E"/>
<rect x="7.0835" y="10.4167" width="1.41667" height="1.41667" fill="#21345E"/>
<rect x="7.0835" y="13.25" width="1.41667" height="1.41667" fill="#21345E"/>
<rect x="7.0835" y="16.0833" width="1.41667" height="1.41667" fill="white"/>
<rect x="7.0835" y="18.9167" width="1.41667" height="1.41667" fill="white"/>
<rect x="7.0835" y="21.75" width="1.41667" height="1.41667" fill="white"/>
<rect x="7.0835" y="24.5833" width="1.41667" height="1.41667" fill="white"/>
<rect x="7.0835" y="27.4167" width="1.41667" height="1.41667" fill="white"/>
<rect x="7.0835" y="28.8333" width="1.41667" height="1.41667" fill="white"/>
<rect x="5.6665" y="3.33325" width="1.41667" height="1.41667" fill="#21345E"/>
<rect x="5.6665" y="4.75" width="1.41667" height="1.41667" fill="#21345E"/>
<rect x="5.6665" y="6.16675" width="1.41667" height="1.41667" fill="#21345E"/>
<rect x="5.6665" y="9" width="1.41667" height="1.41667" fill="#21345E"/>
<rect x="5.6665" y="11.8333" width="1.41667" height="1.41667" fill="#21345E"/>
<rect x="5.6665" y="14.6667" width="1.41667" height="1.41667" fill="#21345E"/>
<rect x="5.6665" y="17.5" width="1.41667" height="1.41667" fill="white"/>
<rect x="5.6665" y="20.3333" width="1.41667" height="1.41667" fill="white"/>
<rect x="5.6665" y="23.1667" width="1.41667" height="1.41667" fill="white"/>
<rect x="5.6665" y="26" width="1.41667" height="1.41667" fill="white"/>
<rect x="5.6665" y="7.58325" width="1.41667" height="1.41667" fill="#21345E"/>
<rect x="5.6665" y="10.4167" width="1.41667" height="1.41667" fill="#21345E"/>
<rect x="5.6665" y="13.25" width="1.41667" height="1.41667" fill="#21345E"/>
<rect x="5.6665" y="16.0833" width="1.41667" height="1.41667" fill="#21345E"/>
<rect x="5.6665" y="18.9167" width="1.41667" height="1.41667" fill="white"/>
<rect x="5.6665" y="21.75" width="1.41667" height="1.41667" fill="white"/>
<rect x="5.6665" y="24.5833" width="1.41667" height="1.41667" fill="white"/>
<rect x="5.6665" y="27.4167" width="1.41667" height="1.41667" fill="white"/>
<rect x="5.6665" y="28.8333" width="1.41667" height="1.41667" fill="white"/>
<rect x="4.25" y="4.75" width="1.41667" height="1.41667" fill="#21345E"/>
<rect x="4.25" y="6.16675" width="1.41667" height="1.41667" fill="#21345E"/>
<rect x="4.25" y="9" width="1.41667" height="1.41667" fill="#21345E"/>
<rect x="4.25" y="11.8333" width="1.41667" height="1.41667" fill="#21345E"/>
<rect x="4.25" y="14.6667" width="1.41667" height="1.41667" fill="#21345E"/>
<rect x="4.25" y="17.5" width="1.41667" height="1.41667" fill="#21345E"/>
<rect x="4.25" y="20.3333" width="1.41667" height="1.41667" fill="#21345E"/>
<rect x="4.25" y="23.1667" width="1.41667" height="1.41667" fill="#21345E"/>
<rect x="4.25" y="26" width="1.41667" height="1.41667" fill="white"/>
<rect x="4.25" y="7.58325" width="1.41667" height="1.41667" fill="#21345E"/>
<rect x="4.25" y="10.4167" width="1.41667" height="1.41667" fill="#21345E"/>
<rect x="4.25" y="13.25" width="1.41667" height="1.41667" fill="#21345E"/>
<rect x="4.25" y="16.0833" width="1.41667" height="1.41667" fill="#21345E"/>
<rect x="4.25" y="18.9167" width="1.41667" height="1.41667" fill="#21345E"/>
<rect x="4.25" y="21.75" width="1.41667" height="1.41667" fill="#21345E"/>
<rect x="4.25" y="24.5833" width="1.41667" height="1.41667" fill="#21345E"/>
<rect x="4.25" y="27.4167" width="1.41667" height="1.41667" fill="white"/>
<rect x="2.8335" y="6.16675" width="1.41667" height="1.41667" fill="#21345E"/>
<rect x="2.8335" y="9" width="1.41667" height="1.41667" fill="#21345E"/>
<rect x="2.8335" y="11.8333" width="1.41667" height="1.41667" fill="#21345E"/>
<rect x="2.8335" y="14.6667" width="1.41667" height="1.41667" fill="#21345E"/>
<rect x="2.8335" y="17.5" width="1.41667" height="1.41667" fill="#21345E"/>
<rect x="2.8335" y="20.3333" width="1.41667" height="1.41667" fill="#21345E"/>
<rect x="2.8335" y="23.1667" width="1.41667" height="1.41667" fill="#21345E"/>
<rect x="2.8335" y="7.58325" width="1.41667" height="1.41667" fill="#21345E"/>
<rect x="2.8335" y="10.4167" width="1.41667" height="1.41667" fill="#21345E"/>
<rect x="2.8335" y="13.25" width="1.41667" height="1.41667" fill="#21345E"/>
<rect x="2.8335" y="16.0833" width="1.41667" height="1.41667" fill="#21345E"/>
<rect x="2.8335" y="18.9167" width="1.41667" height="1.41667" fill="#21345E"/>
<rect x="2.8335" y="21.75" width="1.41667" height="1.41667" fill="#21345E"/>
<rect x="2.8335" y="24.5833" width="1.41667" height="1.41667" fill="#21345E"/>
<rect x="1.4165" y="9" width="1.41667" height="1.41667" fill="#21345E"/>
<rect x="1.4165" y="11.8333" width="1.41667" height="1.41667" fill="#21345E"/>
<rect x="1.4165" y="14.6667" width="1.41667" height="1.41667" fill="#21345E"/>
<rect x="1.4165" y="17.5" width="1.41667" height="1.41667" fill="#21345E"/>
<rect x="1.4165" y="20.3333" width="1.41667" height="1.41667" fill="#21345E"/>
<rect x="1.4165" y="10.4167" width="1.41667" height="1.41667" fill="#21345E"/>
<rect x="1.4165" y="13.25" width="1.41667" height="1.41667" fill="#21345E"/>
<rect x="1.4165" y="16.0833" width="1.41667" height="1.41667" fill="#21345E"/>
<rect x="1.4165" y="18.9167" width="1.41667" height="1.41667" fill="#21345E"/>
<rect x="1.4165" y="21.75" width="1.41667" height="1.41667" fill="#21345E"/>
<rect y="11.8333" width="1.41667" height="1.41667" fill="#21345E"/>
<rect y="13.25" width="1.41667" height="1.41667" fill="#21345E"/>
<rect y="14.6667" width="1.41667" height="1.41667" fill="#21345E"/>
<rect y="16.0833" width="1.41667" height="1.41667" fill="#21345E"/>
<rect y="17.5" width="1.41667" height="1.41667" fill="#21345E"/>
<rect y="18.9167" width="1.41667" height="1.41667" fill="#21345E"/>
<rect y="20.3333" width="1.41667" height="1.41667" fill="#21345E"/>
<rect y="21.75" width="1.41667" height="1.41667" fill="#21345E"/>
<rect x="1.4165" y="23.1667" width="1.41667" height="1.41667" fill="#21345E"/>
<rect x="1.4165" y="24.5833" width="1.41667" height="1.41667" fill="#21345E"/>
<rect x="2.8335" y="26" width="1.41667" height="1.41667" fill="white"/>
<rect x="2.8335" y="27.4167" width="1.41667" height="1.41667" fill="white"/>
<rect x="4.25" y="28.8333" width="1.41667" height="1.41667" fill="white"/>
<rect x="5.6665" y="30.25" width="1.41667" height="1.41667" fill="#979797"/>
<rect x="7.0835" y="30.25" width="1.41667" height="1.41667" fill="#979797"/>
<rect width="1.41667" height="1.41667" transform="matrix(-1 0 0 1 9.9165 31.6667)" fill="#979797"/>
<rect width="1.41667" height="1.41667" transform="matrix(-1 0 0 1 11.3335 31.6667)" fill="#979797"/>
<rect width="1.41667" height="1.41667" transform="matrix(-1 0 0 1 12.75 33.0833)" fill="#979797"/>
<rect width="1.41667" height="1.41667" transform="matrix(-1 0 0 1 14.1667 33.0833)" fill="#979797"/>
<rect width="1.41667" height="1.41667" transform="matrix(-1 0 0 1 15.5833 33.0833)" fill="#979797"/>
<rect width="1.41667" height="1.41667" transform="matrix(-1 0 0 1 17 33.0833)" fill="#979797"/>
<rect width="1.41667" height="1.41667" transform="matrix(-1 0 0 1 18.4167 33.0833)" fill="#979797"/>
<rect width="1.41667" height="1.41667" transform="matrix(-1 0 0 1 19.8333 33.0833)" fill="#979797"/>
<rect width="1.41667" height="1.41667" transform="matrix(-1 0 0 1 21.25 33.0833)" fill="#979797"/>
<rect width="1.41667" height="1.41667" transform="matrix(-1 0 0 1 22.6667 33.0833)" fill="#979797"/>
<rect width="1.41667" height="1.41667" transform="matrix(-1 0 0 1 24.0833 31.6667)" fill="#979797"/>
<rect width="1.41667" height="1.41667" transform="matrix(-1 0 0 1 25.5 31.6667)" fill="#979797"/>
<rect width="1.41667" height="1.41667" transform="matrix(-1 0 0 1 26.9167 30.25)" fill="#979797"/>
<rect width="1.41667" height="1.41667" transform="matrix(-1 0 0 1 28.3333 30.25)" fill="#979797"/>
<rect width="1.41667" height="1.41667" transform="matrix(-1 0 0 1 29.75 28.8333)" fill="#979797"/>
<rect width="1.41667" height="1.41667" transform="matrix(-1 0 0 1 31.1667 27.4167)" fill="#979797"/>
<rect width="1.41667" height="1.41667" transform="matrix(-1 0 0 1 31.1667 26)" fill="#979797"/>
<rect width="1.41667" height="1.41667" transform="matrix(-1 0 0 1 32.5833 24.5833)" fill="#979797"/>
<rect width="1.41667" height="1.41667" transform="matrix(-1 0 0 1 32.5833 23.1667)" fill="#979797"/>
</g>
<defs>
<clipPath id="clip0_118_154">
<rect width="34" height="34" fill="white" transform="translate(0 0.5)"/>
</clipPath>
</defs>
</svg>
