<svg width="18" height="18" viewBox="0 0 18 18" fill="none" xmlns="http://www.w3.org/2000/svg">
<rect x="3" y="9" width="3" height="3" fill="#7A7C7F"/>
<rect x="3" y="6" width="3" height="3" fill="#7A7C7F"/>
<rect y="6" width="3" height="3" fill="#7A7C7F"/>
<rect y="9" width="3" height="3" fill="#7A7C7F"/>
<rect x="6" y="3" width="3" height="3" fill="#7A7C7F"/>
<rect x="6" width="3" height="3" fill="#7A7C7F"/>
<rect x="9" width="3" height="3" fill="#7A7C7F"/>
<rect x="9" y="3" width="3" height="3" fill="#7A7C7F"/>
<rect x="12" y="6" width="3" height="3" fill="#7A7C7F"/>
<rect x="15" y="6" width="3" height="3" fill="#7A7C7F"/>
<rect x="15" y="9" width="3" height="3" fill="#7A7C7F"/>
<rect x="12" y="9" width="3" height="3" fill="#7A7C7F"/>
<rect x="9" y="12" width="3" height="3" fill="#7A7C7F"/>
<rect x="9" y="15" width="3" height="3" fill="#7A7C7F"/>
<rect x="6" y="15" width="3" height="3" fill="#7A7C7F"/>
<rect x="6" y="6" width="3" height="3" fill="#E5E5E5"/>
<rect x="6" y="12" width="3" height="3" fill="#7A7C7F"/>
<rect x="9" y="9" width="3" height="3" fill="#E5E5E5"/>
<rect x="9" y="6" width="3" height="3" fill="#E5E5E5"/>
<rect x="6" y="9" width="3" height="3" fill="#E5E5E5"/>
</svg>
